<?xml version="1.0" encoding="utf-8"?>
<svg xmlns="http://www.w3.org/2000/svg" xmlns:xlink="http://www.w3.org/1999/xlink" version= "1.1" width="1080px" height="2213px" viewBox="0 0 1080 2213">
<g id="layer1">
<g>
<g style="fill:rgb(254,254,254); fill-opacity:1.0; stroke-linejoin: miter">
<path d="M485.0067,728.59467C485.0067,728.59467,485.0067,728.55963,485.0067,728.59467C485.0067,728.8544,484.7967,729.06146,484.53992,729.06146C484.28314,729.06146,484.07312,728.8544,484.07312,728.59467C484.07312,728.59467,484.04102,728.57715,484.07312,728.59467C484.29773,728.71716,485.0067,728.3379,485.0067,728.59467 Z M449.5278,791.56104C449.5278,791.8178,449.32062,792.02783,449.06094,792.02783C448.8042,792.02783,448.59412,791.8178,448.59412,791.56104C448.59412,791.3014,448.8042,791.09424,449.06094,791.09424C449.32062,791.09424,449.5278,791.3014,449.5278,791.56104 Z M360.6203,752.87555C360.17975,752.5867,360.6145,752.7822,360.6028,752.74133C360.6145,752.7822,360.6203,752.87555,360.6203,752.87555 Z M360.3081,753.31616Q360.22934,753.3424,360.13892,753.3424 Z M627.6929,1402.8787Q627.6199,1402.8757,627.5557,1402.8495C625.64465,1402.6948,623.6635,1402.5052,622.193,1401.6796C620.62915,1400.8013,619.678,1399.2257,618.7822,1397.7582Q618.72974,1397.6648,618.73267,1397.5656L610.1255,1374.8427Q610.11096,1374.8019,610.1051,1374.761C609.18604,1372.5319,608.2844,1370.4603,606.9336,1369.3662C605.54474,1368.2429,603.63367,1368.1204,601.56506,1368.0066C601.5184,1368.0037,601.4629,1368.0007,601.4308,1367.9686C601.4133,1367.9512,514.35565,1367.7761,514.35565,1367.7761C514.2798,1367.8549,507.28906,1366.6031,505.31085,1365.1501C503.143,1363.5571,502.10138,1358.4396,502.10138,1358.4396C502.10138,1358.4045,502.49237,1297.3667,502.5011,1297.3375C502.5274,1297.1713,502.67328,1297.0428,502.84833,1297.0458L561.6629,1297.4513L569.208,1297.4601C569.28674,1297.4601,571.63257,1297.2616,573.2927,1298.919C574.41315,1300.0364,576.1871,1302.5048,577.1966,1304.4713C577.3512,1304.4479,588.33044,1330.85,588.33044,1330.85C589.7426,1333.3358,591.1285,1335.6554,592.9491,1336.7758C593.80695,1337.301,594.77563,1337.5695,595.8201,1337.692Q595.8785,1337.6715,595.94556,1337.6715L599.3884,1337.724Q599.6277,1337.7124,599.8699,1337.7008C599.8699,1337.7008,688.0012,1338.9641,688.0858,1338.9816C689.6847,1339.288,691.3799,1339.606,692.39526,1340.1779C693.466,1340.7789,693.787,1341.6483,694.06995,1342.4099L694.0729,1342.4186Q694.07874,1342.4391,694.0846,1342.4595C694.0846,1342.4595,694.7002,1345.0737,694.7031,1345.0941L694.74976,1346.0687C694.82855,1346.1328,695.0824,1402.7562,695.0824,1402.7562C695.0824,1402.9489,627.52356,1402.8467,627.52356,1402.8467 Z M688.2492,1339.7665L599.40015,1338.4214C598.77576,1338.4535,598.1455,1338.4797,597.527,1338.4797C595.7822,1338.4797,594.05786,1338.2755,592.5844,1337.368C590.863,1336.3119,589.53253,1334.3103,588.3071,1332.2067C588.1933,1332.1863,588.09705,1332.1105,588.05035,1331.9967L587.7031,1331.1564Q587.60394,1330.9813,587.50476,1330.8063L587.49304,1330.7828L587.4901,1330.78L587.4901,1330.7771Q587.4464,1330.7041,587.4464,1330.6107L578.2849,1308.3402Q578.2557,1308.305,578.2353,1308.2643C576.6802,1304.9994,575.1659,1301.8279,573.5203,1300.1852C571.9243,1298.5951,570.4713,1298.2567,568.6186,1298.1078L561.6512,1298.2129L503.1751,1297.8102L502.77246,1358.46C503.36768,1361.0013,504.02124,1363.3412,505.96442,1364.768C507.9134,1366.2006,511.18994,1366.7491,514.6795,1367.2422L601.5971,1367.3356Q601.6934,1367.3356,601.7693,1367.3822C603.7299,1367.493,605.8161,1367.6332,607.36536,1368.8878C608.94385,1370.1656,609.9242,1372.567,610.8578,1374.8369Q610.8841,1374.8982,610.8841,1374.9565L619.4066,1397.4518Q619.42413,1397.4985,619.42706,1397.5481C620.3257,1399.0187,621.18054,1400.3783,622.52856,1401.1339C623.91736,1401.913,625.86053,1402.0792,627.9175,1402.2427L694.2888,1402.123L694.3413,1348.7003Q694.3384,1348.6887,694.3384,1348.677L694.1692,1345.2576L693.574,1342.7367C693.2939,1341.9868,693.04297,1341.3478,692.2172,1340.8839C691.3653,1340.4054,688.27545,1339.8307,688.2434,1339.8307 Z M599.1609,1311.9318C593.09503,1310.8931,588.75354,1309.7639,586.80743,1308.4539C585.226,1307.599,583.2128,1305.3378,582.41046,1303.9257C582.35504,1303.8293,569.0504,1271.9712,569.0504,1271.9712L479.9679,1270.705L480.5281,1388.3895C480.5281,1388.3895,604.8007,1388.5033,604.96704,1388.5033C606.0553,1388.5033,607.2136,1388.6053,608.3778,1389.4952C609.67615,1390.4873,612.2554,1394.5516,612.2554,1394.5516Q612.2554,1394.5516,612.2554,1394.5516L628.2676,1430.5966L716.7899,1430.5732L717.0175,1312.7312L600.7685,1312.0864 M582.4922,1302.7031Q584.63666,1306.4932,587.15173,1307.847L587.1838,1307.8674C589.1007,1309.163,592.39185,1310.1257,598.6765,1311.1732C598.6765,1311.1732,717.66815,1312.0222,717.7178,1312.0485L717.426,1431.0897C717.4376,1431.1248,628.0429,1431.294,628.0429,1431.294C627.8533,1431.3815,620.67285,1415.2205,620.67285,1415.2205C620.50073,1415.1971,611.61346,1394.8289,611.61346,1394.8289C611.59595,1394.785,609.1276,1390.9454,607.9547,1390.0497C607.09106,1389.3873,605.1946,1389.2882,605.10706,1389.2882C605.10706,1389.2882,479.93872,1389.0752,479.92703,1389.0752C479.7899,1389.0752,479.2093,1270.031,479.3435,1270.0339L569.31885,1271.2769C569.5085,1271.2798,582.4921,1302.7031,582.4921,1302.7031 Z M318.29355,893.25085C318.54446,893.19543,318.79248,893.353,318.8479,893.6068C318.90335,893.8578,318.74286,894.10864,318.49194,894.16125L318.39276,893.70605L317.9347,893.8053L318.39276,893.70605 Z M303.92108,324.88147Q303.92108,324.88147,303.92108,324.88147L303.8919,325.81506Q303.90063,325.81506,303.9065,325.81506 Z M303.92108,324.88147C304.18073,324.8902,304.38205,325.10608,304.3733,325.36285C304.36456,325.6167,304.1574,325.81506,303.9065,325.81506C304.1574,325.81506,304.36456,325.6167,304.3733,325.36285C304.38205,325.10608,304.18073,324.89014,303.92108,324.88147 Z"/>
</g>
</g>
<g style="fill:rgb(254,254,254); fill-opacity:1.0; stroke-linejoin: miter">
<path d="M601.51306,1367.8848C601.51324,1367.8849,601.5134,1367.885,601.5136,1367.8851L601.50684,1367.8861L601.5071,1367.8848 Z M601.4569,1367.9869L601.4559,1367.9891L601.4559,1367.9901L601.4569,1367.9869 Z M695.0712,1402.6394C695.06934,1402.6404,695.0628,1402.6423,695.05,1402.6448L695.0464,1402.6458C695.0535,1402.6421,695.05975,1402.6404,695.0643,1402.6394 Z M502.8475,1297.1633L561.6621,1297.5688L561.6628,1297.5698L569.2079,1297.5776L569.2131,1297.5786C569.23193,1297.577,569.21423,1297.5776,569.23755,1297.5765L569.2382,1297.5775C569.27686,1297.5746,569.3657,1297.5702,569.4863,1297.5702C570.15845,1297.5702,571.9045,1297.6993,573.20966,1299.0022L573.2097,1299.0032C574.3199,1300.1094,576.08685,1302.567,577.092,1304.525L577.1966,1304.5889C577.1654,1304.5889,577.1409,1304.5757,577.12476,1304.563L577.11896,1304.564C577.63995,1305.4506,588.2155,1330.8799,588.22186,1330.8951L588.2296,1330.9105L588.2297,1330.9115C589.63715,1333.3882,591.0365,1335.7368,592.88745,1336.8759L592.8877,1336.8761C593.765,1337.4133,594.75024,1337.6849,595.8064,1337.8088L595.86383,1337.8011L595.86444,1337.8009L595.8653,1337.8019Q595.9002,1337.7898,595.9405,1337.7891L595.9465,1337.79L599.38666,1337.8416L599.3941,1337.8414Q599.63574,1337.8297,599.8704,1337.8185L599.87646,1337.8195C600.8535,1337.8325,687.99365,1339.0826,688.0621,1339.0967L688.0636,1339.097L688.14746,1339.1132L688.1476,1339.1141L688.23175,1339.1293L688.2317,1339.1302C689.78827,1339.4276,691.3783,1339.74,692.3376,1340.2803L692.3377,1340.2804C693.3658,1340.8575,693.676,1341.6871,693.9579,1342.446L693.9584,1342.4474L693.95953,1342.4504L693.9615,1342.4562L693.96136,1342.4572Q693.97156,1342.492,693.97156,1342.492L693.97144,1342.4929C694.0026,1342.6243,694.58496,1345.0985,694.58673,1345.1108L694.58624,1345.1118L694.6323,1346.0743L694.67554,1346.1599C694.6963,1346.1768,694.9517,1399.9604,694.9643,1402.6532L694.9574,1402.6542C693.5767,1402.7334,678.41455,1402.7562,662.79834,1402.7562C648.5517,1402.7562,633.6579,1402.7377,629.0603,1402.7318C628.0072,1402.7305,627.80505,1402.7301,627.5427,1402.7301L627.53644,1402.7311L627.53424,1402.7299L627.5307,1402.7295C625.6246,1402.5748,623.6858,1402.3828,622.25055,1401.577C620.7332,1400.7249,619.8013,1399.202,618.9097,1397.7412L618.90967,1397.7411L618.88257,1397.6968L618.8826,1397.6978Q618.8483,1397.6338,618.8502,1397.569L618.84265,1397.5239L610.2355,1374.801Q610.2255,1374.7725,610.2215,1374.7443L610.2138,1374.7162C609.2981,1372.4952,608.3869,1370.392,607.0076,1369.2748L607.00757,1369.2758C605.58386,1368.1233,603.6303,1368.0024,601.57153,1367.8892L601.56506,1367.889L601.565,1367.89C601.5267,1367.8864,601.5146,1367.8843,601.50806,1367.8811L601.5064,1367.8845C600.58374,1367.8207,515.12524,1367.66,514.361,1367.6586L514.3559,1367.6595L514.271,1367.6945C514.2926,1367.6721,514.3185,1367.6644,514.3314,1367.6621L514.3305,1367.6631C513.87683,1367.6621,507.2698,1366.4431,505.38046,1365.0554L505.3805,1365.0564C503.33902,1363.5553,502.3016,1358.8179,502.22162,1358.4401L502.21896,1358.441C502.21942,1358.3347,502.60312,1298.4309,502.6183,1297.3558L502.61725,1297.3568C502.63437,1297.2476,502.72925,1297.1633,502.84247,1297.1633 Z M479.96777,1270.5874C479.93686,1270.5874,479.90714,1270.5996,479.88513,1270.6215C479.8627,1270.6437,479.85016,1270.674,479.8503,1270.7056L480.41052,1388.3901C480.41083,1388.4548,480.46332,1388.5071,480.52798,1388.5071C480.88354,1388.5074,604.44495,1388.6208,604.96704,1388.6208C606.0465,1388.6208,607.1732,1388.7224,608.3064,1389.5886C609.5833,1390.5643,612.14905,1394.6036,612.15607,1394.6146L612.15466,1394.6156L628.1601,1430.6443C628.17896,1430.6868,628.2211,1430.7141,628.26764,1430.7141L716.79,1430.6908C716.8548,1430.6908,716.9074,1430.6383,716.90753,1430.5735L717.13513,1312.7314C717.13525,1312.6666,717.08295,1312.614,717.0182,1312.6136L600.77496,1311.9689L599.1721,1311.8147L599.1736,1311.8157C593.10596,1310.7754,588.7937,1309.6492,586.8731,1308.3563L586.86334,1308.3505C585.3086,1307.51,583.31274,1305.2722,582.5158,1303.873L582.5156,1303.874L582.51465,1303.8711L582.5147,1303.8721C582.3097,1303.4159,569.1611,1271.931,569.15894,1271.9259C569.14087,1271.8827,569.0989,1271.8542,569.05206,1271.8536L479.96957,1270.5874 Z"/>
</g>
</g>
</svg>